<svg width="181.52" height="327.31" version="1.1" viewBox="0 0 181.52 327.31" xml:space="preserve" xmlns="http://www.w3.org/2000/svg">
<path d="m174.07 110.36c0.828 0 1.5-0.671 1.5-1.5v-4.601h4.451c0.828 0 1.5-0.671 1.5-1.5v-9.699c0-0.829-0.672-1.5-1.5-1.5h-24.146c-3.842-27.97-40.149-45.072-56.818-51.509 0.26-0.794 0.404-1.637 0.404-2.515 0-3.405-2.109-6.332-5.133-7.646 1.078-0.939 1.76-2.294 1.76-3.806 0-1.994-1.182-3.722-2.906-4.57l-0.781-6.204s-0.40312-0.99993-1.0144-1.4999c-0.61131-0.49996-1.4308-0.49996-2.2636 1.4999l-0.781 6.204c-1.725 0.849-2.906 2.576-2.906 4.57 0 1.512 0.682 2.866 1.758 3.806-3.021 1.313-5.131 4.24-5.131 7.646 0 0.877 0.144 1.721 0.404 2.515-16.67 6.437-52.977 23.539-56.818 51.509h-24.148c-0.828 0-1.5 0.671-1.5 1.5v9.699c0 0.829 0.672 1.5 1.5 1.5h4.451v4.601c0 0.829 0.672 1.5 1.5 1.5h3.271v162.28h-3.271c-0.828 0-1.5 0.671-1.5 1.5v4.598h-4.451c-0.828 0-1.5 0.671-1.5 1.5v9.702c0 0.829 0.672 1.5 1.5 1.5h32.018c17.57 23.99 57.244 35.867 57.244 35.867s39.674-11.877 57.244-35.867h32.016c0.828 0 1.5-0.671 1.5-1.5v-9.702c0-0.829-0.672-1.5-1.5-1.5h-4.451v-4.598c0-0.829-0.672-1.5-1.5-1.5h-3.27v-162.28zm-120.26 152.01h-26.795v-103.07c0-24.726 13.396-40.929 13.396-40.929s13.398 16.203 13.398 40.929v103.07zm60.301 0h-46.701v-103.07c0-24.726 23.352-40.929 23.352-40.929s23.35 16.203 23.35 40.929v103.07zm40.396 0h-26.795v-103.07c0-24.726 13.396-40.929 13.396-40.929s13.398 16.203 13.398 40.929v103.07z"/>
</svg>
