<svg version="1.1" viewBox="0 0 601.68 363.5" xmlns="http://www.w3.org/2000/svg" xmlns:xlink="http://www.w3.org/1999/xlink" preserveAspectRatio="none">
 <g transform="translate(-86.209 -201.33)">
  <path d="m135.78 201.33-11.589 50.953c-1.0384 4.5658-4.6958 10.252-8.1406 12.608l-18.971 12.972 11.445 3.5357 11.027-9.5131c5.0769-3.1362 10.001-11.197 11.446-17.55l15.374-53.005zm18.315 0-24.932 79.192 6.6223 2.6355 28.942-81.828zm191 0c-2.257 4.7256-3.6608 9.9342-4.1279 15.212-10.379-13.523-28.221-17.417-42.045-7.7964-14.21 9.7164-20.142 30.201-14.465 47.61 1.6041 4.9382 4.3162 6.6042 6.2539 5.2793l3.0143-2.0614c-8.4862-14.649-4.3916-35.052 8.6966-43.834 12.487-8.5387 28.652-3.6658 35.902 10.823l6.75 13.49c9.2951 18.287 29.883 24.494 45.77 13.799 15.523-10.614 21.086-34.368 12.431-52.522h-8.5023c0.71369 1.0637 1.3745 2.1938 1.9735 3.391 7.4201 14.54 3.0856 33.597-9.572 42.085-12.487 8.5387-28.652 3.6658-35.902-10.823-5.6975-11.165-4.4636-24.992 2.1461-34.653zm84.456 0c-0.2685 1.3286-0.4776 2.6769-0.61855 4.0406l-3.1481 30.46c-0.54573 5.2796 1.6069 8.5267 6.1505 9.278l3.9879-38.582c0.18462-1.7862 0.49382-3.5217 0.92294-5.1966zm61.73 0c-0.32361 0.24166-0.65381 0.47833-0.99322 0.709l-52.875 35.935 4.6044 6.673 52.875-35.935c2.948-2.0035 5.5207-4.4996 7.6125-7.382zm23.56 0c-1.1294 1.4851-2.2684 3.1003-2.2448 3.297 0.0444 0.37076 5.3028 4.6842 5.6586 4.6416 0.35576-0.0426 4.4483-5.4749 4.4039-5.8456-0.0196-0.16408-1.0694-1.1038-2.2546-2.0929zm19.287 0c-4.7428 4.9135-8.346 11.394-10.061 18.936-3.7024 16.278-18.343 26.289-32.295 22.083-7.5281-0.51536-15.131-1.6456-20.504-0.54725-12.525 3.0791-21.272 14.485-23.372 28.044-8.7087-10.901-22.267-16.824-34.792-13.745-17.672 4.3445-27.842 25.146-22.211 45.429 5.6315 20.283 25.26 33.548 42.933 29.204 17.672-4.3445 27.726-24.907 22.094-45.19-4.4833-16.147 3.4661-32.407 17.535-35.866 5.5105-1.7826 8.2757-1.8716 16.511 0.61133 12.421 3.7445 25.467-1.6559 33.711-12.322 2.4753 13.898 11.549 25.966 23.97 29.71 17.525 5.2834 36.257-7.5246 40.908-27.971 3.2311-14.206-1.056-28.935-9.8505-38.376h-13.165c12.4 5.3842 19.677 21.078 16.209 36.325-3.7024 16.278-18.343 26.289-32.296 22.082-13.952-4.2062-22.283-21.142-18.58-37.42 2.2807-10.028 8.6323-17.617 16.434-20.987zm110.03 0-30.606 26.397 5.2896 6.1004 37.68-32.498zm32.611 3.8313c-1.7117 0.011-5.7083 2.3263-5.5991 3.7316l3.0809 8.8666c0.11644 1.4989 1.1743 2.7188 2.6448 3.05l9.9415 1.327v-15.771l-9.758-1.1746c-0.0919-0.0207-0.19595-0.0302-0.31006-0.0294zm-503.75 0.31781c-3.1526-0.0577-5.3213 2.0892-6.2751 6.2828l-13.997 61.539c-1.8512 8.139-6.0285 14.516-12.102 18.837-6.2437 4.2693-13.046 5.4005-20.023 3.2975l-16.505-4.9759c-6.9762-2.1031-12.254-6.8756-15.879-14.12-0.8131-1.625-1.4892-3.2838-2.0298-4.9713v15.632c4.2809 5.4601 9.8934 9.5277 16.103 11.4l16.504 4.9759c8.5075 2.5647 17.793 0.90899 25.329-4.2437 7.7057-5.1014 13.151-13.854 15.408-23.779l20.338-68.112-4.5356-1.3674c-0.82948-0.25006-1.6093-0.38098-2.3368-0.39429zm433.2 0.17156c-0.35576 0.0426-4.4477 5.4749-4.4034 5.8456 0.0444 0.37076 5.3028 4.6836 5.6586 4.6411 0.35576-0.0426 4.4482-5.4749 4.4039-5.8456-0.0444-0.37075-5.3033-4.6836-5.6591-4.6411zm-147.75 0.13643c-0.35579 0.0426-4.4483 5.4749-4.4039 5.8456 0.0444 0.37075 5.3028 4.6836 5.6586 4.6411 0.35578-0.0426 4.4482-5.4749 4.4039-5.8456-0.0444-0.37076-5.3028-4.6836-5.6586-4.6411zm186.17 13.834c-0.35576 0.0426-4.4477 5.4749-4.4034 5.8456 0.0444 0.37076 5.3028 4.6836 5.6586 4.6411 0.35576-0.0426 4.4483-5.4749 4.4039-5.8456-0.0444-0.37076-5.3033-4.6836-5.6591-4.6411zm12.675 2.0913c-1.2168-1.7e-4 -2.1369 0.96892-2.035 2.2805l-0.2553 10.349c0.11644 1.499 1.1743 2.7193 2.6448 3.0505l10.438 1.3932c1.3382 0.17863 2.5566-0.87255 2.5725-2.219l0.12297-10.502c-0.11647-1.499-1.1744-2.7188-2.6448-3.0499l-10.306-1.2408c-0.1838-0.0414-0.36361-0.0615-0.53742-0.0615zm-56.623 0.55243-6.8451 1.0051 4.3889 19.11c1.2096 6.5354-0.15341 12.466-4.2602 17.818-4.1068 5.3514-10.045 8.3752-16.84 9.6774l-16.95 3.2479c0.76706 4.1444 3.6333 6.3454 8.0248 5.3707l10.105-2.2428c8.4452-1.8744 16.321-5.8355 21.307-12.135 5.1276-6.4837 7.2716-14.844 5.4581-22.741zm-352.62 3.4618c-0.58742 0.0703-7.3441 9.0394-7.2709 9.6516 0.0733 0.61218 8.7562 7.7339 9.3436 7.6636 0.58742-0.0703 7.3441-9.0399 7.2709-9.6521-0.0733-0.61218-8.7562-7.7334-9.3436-7.6631zm-32.315 3.1001c-3.1526-0.0577-5.3212 2.0892-6.2751 6.2828l-22.53 99.058 6.8058 2.0521 27.992-105.9-3.6556-1.1017c-0.82948-0.25006-1.6093-0.38098-2.3368-0.39429zm-23.324 3.6344c-0.2425-5e-3 -0.47928 4e-3 -0.71003 0.0253-2.7691 0.25897-4.6846 2.386-5.565 6.257l-13.952 61.34c-1.0384 4.5658-4.6958 10.252-8.1406 12.608l-18.971 12.972 11.445 3.5357 11.027-9.5131c5.0769-3.1362 10.002-11.197 11.446-17.55l19.745-68.079-3.9879-1.2015c-0.82949-0.25005-1.6093-0.38086-2.3368-0.39429zm443.67 3.4572c-3.9174-0.0589-8.0263 2.6386-8.2884 6.9903 0 0.0347 1.1539 0.1173 1.1539 0.1173 2.5176 0.12261 6.1436 0.54756 8.3556 1.2144 13.952 4.2062 22.328 20.943 18.625 37.221l-6.7727 29.777-25.352-7.6424c-6.2956-1.8979-11.199-5.9217-14.879-12.122-3.2504 3.899-3.6884 8.2218-0.31676 11.784 3.712 3.6645 8.2854 6.7397 13.39 8.2786l32.158 9.6945 8.5788-37.717c5.689-25.013-9.7631-42.611-24.521-47.272-0.68667-0.20701-1.4052-0.31207-2.1306-0.32298zm-18.659 1.9942c-5.4946 6.035-6.5645 9.5256-6.6967 17.131-0.13287 7.8253 2.9274 15.247 8.5938 19.963l13.712 11.412 4.3956-4.8276-13.712-11.412c-4.4786-4.0767-6.7633-9.2468-6.7443-15.631 0.019-6.3838 0.42579-7.8291 4.8214-12.657zm-531.24 1.433v10.748l2.3549-10.354c-0.83644-0.25216-1.6221-0.38284-2.3549-0.39429zm244.37 10.025c-3.1526-0.0577-5.3213 2.0892-6.2751 6.2828l-22.53 99.058 6.8058 2.0516 27.992-105.9-3.6556-1.1023c-0.82948-0.25006-1.6093-0.38046-2.3368-0.39377zm-93.548 3.3832-2.2278 1.9213c-2.1731 1.8743-2.2005 4.2016-0.078 6.6492l25.306 29.184c3.3469 3.8598 5.0321 8.3303 5.0591 13.079-0.0566 4.8206-1.841 8.8277-5.2679 11.783l-8.1075 6.9923c-3.4269 2.9556-7.577 4.0667-12.368 3.4272-4.7912-0.63956-8.9836-2.9476-12.331-6.8073l-5.4689-6.3071c-2.1731 1.8743-2.2005 4.2016-0.078 6.6492l2.204 2.5414c4.0816 4.707 9.8366 7.8062 15.535 8.6501 5.7825 0.77188 11.593-0.78349 15.772-4.3878l8.107-6.9923c4.1791-3.6044 6.5608-9.1134 6.629-14.931 0.15183-5.8901-2.2601-11.873-6.3417-16.58zm240.76 2.2929c-0.58742 0.0703-7.3447 9.0399-7.2714 9.6521 0.0733 0.61218 8.7562 7.7334 9.3436 7.6631s7.3446-9.0394 7.2714-9.6516c-0.0733-0.61218-8.7562-7.7339-9.3436-7.6636zm49.903 5.3976-21.402 35.386c-2.4442 4.0413-5.9748 6.4484-10.694 7.1469-4.7191 0.69851-9.3541-0.69382-13.553-3.5579l-17.914-12.22c-1.5499 2.5628-2.7399 5.7989-0.0589 7.7354l15.467 11.172c5.1557 3.7241 11.46 5.3039 17.096 4.5594 5.7986-0.76854 10.679-4.1832 13.66-9.1116l21.402-35.386zm-260.97 1.8784c-0.49476 0.0592-6.1859 7.6136-6.1242 8.1292 0.0617 0.51561 7.375 6.5136 7.8698 6.4544 0.49476-0.0592 6.1859-7.6136 6.1242-8.1292-0.0617-0.51562-7.375-6.5136-7.8698-6.4544zm154.3 0.99994c12.253 0.14641 24.163 9.9377 28.042 23.908 4.4833 16.147-3.3493 32.168-17.419 35.627-14.069 3.4588-29.4-6.8672-33.883-23.015-4.4833-16.147 3.4661-32.406 17.535-35.865 0.87934-0.21616 1.763-0.3776 2.6484-0.48628 0.83002-0.10188 1.6614-0.15755 2.4918-0.16846 0.1946-3e-3 0.38944-3e-3 0.58394-5.3e-4zm-54.462 6.5567c-3.1526-0.0577-5.3212 2.0892-6.2751 6.2828l-22.53 99.058 6.8063 2.0516 27.992-105.9-3.6556-1.1023c-0.82947-0.25006-1.6098-0.38047-2.3373-0.39378zm-133.28 9.5338c-1.0757 7e-3 -2.1994 0.196-3.0711 0.45423-1.1643 0.51054-2.3307 1.187-3.3336 2.0521-5.0149 4.3252-5.1124 12.637-0.21446 18.285 1.0612 1.2238 2.455 2.3256 3.9341 3.189-1.003 0.86505-1.6716 1.442-2.1751 2.0407-1.5103 1.7963-0.37517 3.7792 1.928 4.9191 0.5093-1.0974 1.1834-2.173 2.1864-3.038l13.708-11.823c1.5045-1.2976 1.3642-3.4802-0.60306-5.0746l-11.869 10.236c-1.6482-0.55297-3.044-1.4885-4.2685-2.9006-3.5102-4.048-3.4457-9.5336 0.14831-12.633 1.2537-1.0813 5.4791-3.5114 7.2187-3.6954-0.13719-1.5271-1.7967-2.0229-3.5894-2.0118zm342.91 3.4546c-17.565-0.0859-31.418 13.201-35.756 32.272-3.023 13.291-0.28787 27.135 6.303 37.406l-67.974-20.492-6.55 6.9794-0.12557 0.48524 4.6592 1.3958 109.56 33.027c4.9366 1.4882 8.3003-0.81215 9.6103-6.5717l-27.151-8.185c-15.569-4.6936-24.865-23.592-20.733-41.757 3.5772-15.728 16.284-26.1 29.571-25.645 3.8091 0.20144 6.4052 2.1675 9.1292 5.3557l1.4402 7.244c3.5221 4.1391 12.847 4.8748 16.284 0.46664l-13.809-15.999c-2.724-3.1883-5.1302-5.0971-8.8889-5.5201-1.8901-0.30351-3.7469-0.45568-5.564-0.46457zm-275.5 6.4249-8.5783 37.718c-1.806 7.9405-6.0289 14.516-12.273 18.785-6.2437 4.2694-12.831 5.2533-19.808 3.1502l-61.084-18.415-1.8061 7.9406 61.084 18.415c8.5075 2.5647 17.703 1.3065 25.284-4.0447 7.3654-5.204 13.151-13.854 15.408-23.78l6.7727-29.777c1.1739-5.1614-0.57631-8.6585-5.0002-9.9922zm228.04 11.695c-0.10924 7.9e-4 -0.21949 0.0145-0.32863 0.0419l-6.3464 0.93896c-0.81362 0.12043-1.3502 1.0075-1.1327 1.8728l1.6965 6.7495c0.21749 0.86524 1.1454 1.5353 1.9591 1.4149l5.7955-0.1819c0.81365-0.12042 1.9012-1.765 1.6836-2.6303l-1.6965-6.7489c-0.13814-0.84335-0.86561-1.462-1.6304-1.4568zm-442.51 4.3403v10.33c1.185 2.7649 1.6683 5.9589 1.2123 9.187-0.21646 1.5324-0.63302 2.9699-1.2123 4.284v6.8848c2.3936-2.705 4.0147-6.3303 4.5992-10.469 0.83502-5.9115-0.85523-11.838-4.0943-16.057l35.105 6.3164-2.19-3.3455-2.0407-0.64234zm490.1 10.266c-0.46408-0.0206-0.9426 0.13322-1.3632 0.48369l-8.3514 5.5433c-1.1217 0.93461-1.4832 2.5227-0.90332 3.9703l4.8752 9.7426c0.625 1.249 2.1564 1.7107 3.2329 0.97462l8.3969-5.7418c1.1216-0.93463 1.4826-2.5228 0.90279-3.9703l-4.9201-9.5441c-0.36242-0.90472-1.0962-1.424-1.8696-1.4583zm-469.57 2.8246c-0.4063 0.0486-5.0798 6.2527-5.0292 6.6761 0.0507 0.42342 6.0564 5.3486 6.4626 5.2999 0.4063-0.0486 5.0798-6.2521 5.0292-6.6756-0.0507-0.42342-6.0564-5.3491-6.4626-5.3004zm25.338 3.8189c-1.3807-0.0246-2.9223 0.43303-4.5987 1.3798l-41.272 23.309v9.0883l53.162-25.795-1.8521-3.8737c-0.51363-1.0744-1.1185-1.9402-1.8066-2.5947-1.0322-0.98164-2.2516-1.4884-3.6323-1.5131zm140.71 2.7073c-0.49366 0.0591-6.1718 7.5967-6.1102 8.1111 0.0616 0.51447 7.3586 6.499 7.8522 6.4399 0.49366-0.0591 6.1718-7.5967 6.1102-8.1111-0.0616-0.51447-7.3586-6.499-7.8522-6.4399zm396.68 0.11886c-0.35576 0.0426-4.4477 5.4744-4.4033 5.8451 0.0444 0.37076 5.3028 4.6836 5.6586 4.6411 0.35576-0.0426 4.4482-5.4744 4.4039-5.8451-0.0444-0.37076-5.3033-4.6836-5.6591-4.6411zm-72.207 1.6449-1.8061 7.9406 61.084 18.415c8.5075 2.5647 17.703 1.3064 25.283-4.0447 2.1772-1.5383 4.2145-3.3798 6.0652-5.4643v-12.152c-2.2689 4.3114-5.7779 7.8644-9.7353 10.57-6.2438 4.2693-12.831 5.2533-19.807 3.1502zm-454.94 13.569-1.9906 6.2224 89.909 31.447 1.0692-3.3419c1.2938-4.0444-0.37241-6.9523-4.761-8.308l-57.347-17.716-11.445-3.5357zm333.48 4.8162c-0.2575 0.0308-3.2195 3.9624-3.1874 4.2308 0.0321 0.26833 3.8384 3.3898 4.0958 3.359 0.2575-0.0308 3.219-3.9624 3.1869-4.2308-0.0321-0.26833-3.8379-3.3898-4.0954-3.359zm-9.6113 7.9008-0.90279 3.9703c-4.5603 20.05 6.7554 40.643 24.111 45.875l51.556 15.542c6.9762 2.1031 12.424 6.9274 16.095 13.973 3.625 7.2444 4.5519 15.16 2.7006 23.299-1.8512 8.139-5.984 14.318-12.228 18.587-6.2438 4.2693-12.982 5.097-20.023 3.2975l-114.51-34.521-1.7544 7.7137-0.0517 0.22686 114.51 34.521c8.5075 2.5647 17.793 0.9089 25.284-4.0452 7.5355-5.1527 13.321-13.802 15.624-23.927 2.2124-9.7271 0.85169-20.531-3.5233-29.275-4.3298-8.9418-11.81-15.227-20.317-17.792l-51.556-15.542c-12.761-3.8471-21.178-17.203-19.674-31.81l86.947 26.212c4.4239 1.3337 7.4385-0.7277 8.6124-5.889zm-167.04 8.4894c-7.4961 0.0627-14.734 2.4759-20.433 7.3918-13.946 12.028-14.218 35.187-0.59738 50.895 10.844 12.506 10.629 30.817-0.47387 40.393l-8.124 7.0068 5.2896 6.0999 8.1246-7.0068c9.8843-8.525 12.867-22.826 9.0005-36.018 12.396 5.8352 27.016 4.9546 36.901-3.5703 13.946-12.028 14.221-35.457 0.59996-51.165-7.8746-9.0813-18.935-13.9-29.56-14.026-0.2423-3e-3 -0.48424-3e-3 -0.72605-1e-3zm-193.91 0.24597-8.5788 37.718c-1.6251 7.1449-5.2081 13.184-10.458 17.433v9.6051c0.62777-0.37676 1.2475-0.77681 1.8557-1.2061 7.3654-5.204 13.151-13.854 15.408-23.779l6.7727-29.777c1.1739-5.1614-0.57578-8.659-4.9997-9.9927zm-15.361 1.404c-0.073 4e-3 -0.13982 0.0201-0.19947 0.0476l-3.4763 2.9574v13.013c0.28748 0.0831 0.5955 0.0854 0.89194-0.0176l6.9221-2.4035c0.95443-0.43837 1.4906-1.4799 1.3395-2.604l-1.7679-7.6222c-0.14164-1.0539-2.6148-3.4382-3.7099-3.3708zm556.07 2.3807c-0.31726-5e-3 -0.57767 0.0576-0.75293 0.2036l-5.2648 7.5835c-1.1216 0.9346-1.4826 2.5227-0.90278 3.9703l4.8746 9.7426c0.62498 1.249 2.1564 1.7107 3.2329 0.97461l8.3969-5.7418c1.1217-0.93463 1.4826-2.5228 0.90281-3.9703l-4.9201-9.5436c-0.48924-1.2214-3.8534-3.1939-5.5666-3.2189zm-168.07 0.91984c-0.27932 0.0334-3.4925 4.2983-3.4577 4.5894 0.0349 0.29109 4.1638 3.6776 4.4432 3.6442 0.27932-0.0334 3.492-4.2983 3.4572-4.5894-0.0348-0.29109-4.1633-3.6776-4.4426-3.6442zm84.66 1.9012c-0.35576 0.0426-4.4477 5.4749-4.4034 5.8456 0.0444 0.37076 5.3028 4.6836 5.6586 4.6411 0.35576-0.0426 4.4482-5.4749 4.4039-5.8456-0.0444-0.37076-5.3033-4.6836-5.6591-4.6411zm-308.52 0.71572c-0.38371 9e-3 -0.76482 0.12189-1.1012 0.35192l-8.3964 5.7412c-1.2466 0.6848-1.653 2.4715-0.85782 3.7719l4.8746 9.7426c0.62498 1.2492 3.5733 2.0048 4.6498 1.2687l6.9799-6.0358c1.0765-0.73612 1.4828-2.5228 0.85783-3.7719l-4.8752-9.742c-0.42969-0.85872-1.2875-1.3455-2.1316-1.3265zm46.685 0.0114c8.3563 0.0785 17.04 3.89 23.309 11.12 10.844 12.506 10.629 30.817-0.47387 40.393s-29.168 7.0299-40.012-5.4756c-10.844-12.506-10.632-30.548 0.47077-40.124 4.6841-4.0399 10.608-5.9706 16.705-5.9133zm-144.71 0.53847-1.9906 6.2224 89.909 31.447 1.0692-3.3419c1.2938-4.0444-0.3729-6.9523-4.7615-8.308zm-7.6564 0.0196-8.9049 1.1792c-1.7678 0.22442-3.0149 0.65051-4.0762 1.956-6.0286 6.7598-5.1616 16.413 0.96635 23.48 3.8703 4.4633 6.7085 5.9106 11.872 6.0079-6.9741 10.287-22.206 16.214-25.235 29.038-1.7115 6.8094-1.346 14.859 1.2222 20.358 2.5607 5.1175 6.886 9.029 11.865 10.53l9.6604 2.9125c4.9795 1.5012 10.414 0.53176 14.824-2.4841 4.5102-2.9859 7.6977-8.108 9.0191-13.917l11.904-39.867-2.6551-0.79995c-2.5893-0.7806-4.3534 0.42483-5.0405 3.4458l-8.1923 36.02c-1.0835 4.7638-3.5289 8.4963-7.0838 11.025-3.6545 2.4989-7.636 3.1611-11.719 1.9301l-9.6604-2.9125c-4.0832-1.2309-7.1723-4.0244-9.294-8.2646-2.1218-4.2402-0.35703-10.537 0.37879-14.28 9.7306-17.307 25.103-28.673 39.675-41.241 1.7172-1.481 0.96661-4.5337-0.71055-6.4678l-9.4444 8.1458c-5.4157 4.6709-12.297 3.8509-17.587-2.249-4.5798-5.2816-6.1633-11.215-2.7719-16.09 0.99687-1.3799 2.3105-1.8622 4.0783-2.0867l2.8608 1.2728c2.2915-0.28659 4.7389-4.2469 4.0478-6.6414zm290.51 2.5244c-4.0979 0.0291-8.2381 1.2527-12.012 3.7936-6.8584 4.6897-10.98 12.969-11.734 21.495-7.514-9.7904-20.431-12.61-30.439-5.6446-10.288 7.0345-14.582 21.865-10.472 34.469 1.1613 3.5752 3.1245 4.7812 4.5274 3.822l2.1823-1.4919c-6.1438-10.606-3.1788-25.377 6.2968-31.735 9.0407-6.1819 20.743-2.6535 25.992 7.8362l4.8865 9.7663c6.7295 13.24 21.635 17.733 33.137 9.9896 11.379-7.7806 15.367-25.314 8.7607-38.517-4.5214-8.8954-12.734-13.843-21.125-13.783zm0.54158 5.8498c6.4271 0.11085 12.651 3.9966 16.096 10.88 5.372 10.527 2.2336 24.324-6.9303 30.468-9.0407 6.1818-20.743 2.654-25.992-7.8357-5.372-10.527-2.2336-24.324 6.9303-30.468 3.1077-2.125 6.53-3.1028 9.8966-3.0448zm-86.931 4.6323c-0.35579 0.0426-4.4483 5.4749-4.4039 5.8456 0.0444 0.37076 5.3033 4.6836 5.6591 4.6411 0.35576-0.0426 4.4477-5.4744 4.4034-5.8451-0.0444-0.37076-5.3028-4.6842-5.6586-4.6416zm-234.5 2.5249c-0.32268 0.0386-4.0343 4.9652-3.9941 5.3015 0.0403 0.33628 4.8098 4.2482 5.1325 4.2096 0.32268-0.0386 4.0343-4.9652 3.9941-5.3015-0.0403-0.33628-4.8098-4.2482-5.1325-4.2096zm433.36 7.8217c-0.35576 0.0426-4.4483 5.4744-4.4039 5.8451 0.0444 0.37075 5.3033 4.6842 5.6591 4.6416 0.35576-0.0426 4.4477-5.4749 4.4034-5.8456-0.0444-0.37076-5.3028-4.6836-5.6586-4.6411zm82.68 3.0872c-3.9174-0.0589-8.0263 2.6392-8.2884 6.9908 0 0.0347 1.1539 0.11679 1.1539 0.11679 2.5176 0.1226 6.1436 0.54757 8.3556 1.2144 13.952 4.2061 22.328 20.943 18.625 37.222l-6.7727 29.777-25.352-7.6429c-6.2956-1.8979-11.199-5.9217-14.879-12.122-3.2504 3.899-3.6879 8.2218-0.31626 11.784 3.712 3.6645 8.2849 6.7402 13.389 8.2791l32.158 9.6945 8.5788-37.718c5.689-25.013-9.7626-42.61-24.52-47.272-0.68668-0.207-1.4057-0.31258-2.1311-0.32349zm-375.55 9.6583c-3.1526-0.0577-5.3212 2.0892-6.2751 6.2828l-22.53 99.058 6.8058 2.0521 27.992-105.9-3.6556-1.1023c-0.82948-0.25006-1.6093-0.38046-2.3368-0.39377zm-22 107.39 61.084 18.414c8.5075 2.5647 13.418-3.0292 20.998-8.3804 7.3654-5.2039 13.151-13.854 15.408-23.779l6.7727-29.777c1.1739-5.1614-0.57579-8.6585-4.9997-9.9922l-8.5788 37.718c-1.806 7.9405-6.0289 14.516-12.273 18.785-6.2437 4.2694-12.747 4.9106-19.807 3.1502l-56.495-14.087zm-9.7911-105.4c-3.1526-0.0577-5.3212 2.0892-6.2751 6.2828l-22.53 99.058 6.8058 2.0516 27.992-105.9-3.6556-1.1023c-0.82949-0.25006-1.6093-0.38047-2.3368-0.39378zm354.3 2.6329-0.11832 0.41599 1.7766 8.2796 17.13 6.29c-9.2714 4.3338-17.265 13.149-20.803 24.344-5.6014 17.726 0.32943 35.899 16.495 43.281 2.9356 1.5085 12.859 4.9683 16.233 3.9512l0.71935-7.9633c-3.3744 1.0171-13.461-2.4922-16.338-4.1874-9.9272-6.0944-14.744-19.837-10.558-33.085 4.835-15.301 19.82-24.644 33.253-20.549l23.425 7.1401c1.533-4.8515 0.0429-8.084-4.1941-9.4609l-53.004-17.225zm-429.9 5.1831c-0.32522 6e-3 -0.64911 0.0285-0.97048 0.0672-4.5911 0.55206-8.7074 4.3736-9.9462 9.8201-0.34353 1.5105-0.41487 3.227-0.26045 4.8876-1.1951-0.36027-1.9915-0.60056-2.7151-0.69453-2.1706-0.2819-3.0452 1.6894-2.651 4.1672 1.1016-0.16453 2.276-0.18252 3.4711 0.17776l16.333 4.9232c1.7926 0.54041 3.358-0.72592 3.4882-3.1698l-14.141-4.2628c-0.47961-1.6345-0.53491-3.2651-0.13849-5.008 1.1364-4.9962 5.2948-7.8399 9.5772-6.549 1.4938 0.45034 5.6156 2.6091 6.6988 3.929 1.7175-1.4688-0.66595-4.7177-2.4464-6.2477-1.0162-0.67883-2.1587-1.2716-3.3538-1.632-0.98032-0.29553-1.9694-0.42635-2.945-0.40824zm192.77 0.95395c-2.463 0.0181-4.5038 1.7132-5.9671 5.0204l-53.008 84.961 6.2983 3.4014 59.666-90.536-3.3833-1.8268c-1.2794-0.69084-2.4859-1.0288-3.6055-1.0206zm-230.92 2.3642c-1.2719 4e-3 -2.6726 0.50892-4.1729 1.5208l-22.532 15.198v9.9772l33.055-20.567-1.6919-2.9492c-1.2155-2.119-2.7991-3.1845-4.6581-3.1791zm81.753 1.4449-8.5788 37.717c-1.806 7.9405-6.0289 14.516-12.273 18.785-6.2437 4.2693-12.831 5.2533-19.807 3.1502l-61.084-18.414-1.8061 7.9406 61.084 18.414c8.5075 2.5647 17.703 1.3065 25.283-4.0447 7.3654-5.204 13.151-13.854 15.409-23.779l6.7722-29.777c1.1739-5.1614-0.5758-8.6585-4.9997-9.9922zm201.05 7.3608c-2.0661 0.0411-4.0109 1.3648-5.7289 3.9481l-38.943 53.521 5.655 4.47 46.432-57.814-3.037-2.4009c-1.4932-1.1804-2.9639-1.7525-4.3775-1.7244zm292.16 8.2367c-8.9857 4.6593-15.644 13.929-18.305 25.63-2.7091 11.911-0.2581 24.317 5.6482 33.521l-60.914-18.364-5.8694 6.2544-0.11266 0.43514 4.1754 1.2506 75.378 22.724v-9.8759c-9.5266-6.8824-14.523-20.607-11.501-33.895 1.7695-7.7798 6.0342-14.092 11.501-18.123zm-339.37 13.704c-0.35576 0.0426-4.4482 5.4744-4.4039 5.8451 0.0444 0.37076 5.3033 4.6842 5.6591 4.6416 0.35576-0.0426 4.4477-5.4749 4.4033-5.8456s-5.3028-4.6836-5.6586-4.6411zm-88.134 29.941c-0.60287 0.0721-7.5373 9.2776-7.4621 9.9059 0.0752 0.62828 8.9862 7.9368 9.5891 7.8646 0.60286-0.0722 7.5378-9.2771 7.4626-9.9053-0.0752-0.62828-8.9867-7.9373-9.5896-7.8652zm134.2 2.1322c-14.742 0.0643-28.537 11.774-32.461 29.026-3.7024 16.278-18.343 26.289-32.295 22.083l-10.209-3.0778-1.8061 7.9406 10.209 3.0774c12.421 3.7445 25.467-1.6558 33.712-12.322 2.4753 13.898 11.548 25.967 23.969 29.711 17.525 5.2833 36.257-7.5245 40.907-27.971 4.6506-20.447-6.2695-41.982-23.795-47.265-2.7384-0.82553-5.501-1.2129-8.231-1.201zm60.299 1.3772c-1.5821-0.0193-3.166 0.63222-4.7062 1.9606l-3.0308 3.2809 28.157 25.696c5.9549 5.4343 8.1521 13.494 8.0605 21.304-0.0917 7.8093-2.9798 14.032-8.5312 18.82l-12.67 10.927h12.364l5.596-4.8266c6.7701-5.839 10.892-14.459 10.87-24.037-0.0249-9.3083-3.6611-19.234-10.273-26.859l-19.837-22.876c-1.934-2.2304-3.9655-3.3645-5.9996-3.3895zm-363.39 4.3894-3.6091 3.113c-0.69597 0.60024-1.2537 1.2296-1.6779 1.8831v6.7091c0.39791 0.71753 0.91458 1.4449 1.5513 2.1792l40.995 47.277c4.2908 4.9483 6.8938 10.516 7.8156 16.437h7.5282c-1.0902-7.6015-4.6438-15.014-9.9276-21.108zm302.98 2.405c2.1604 0 4.3518 0.31277 6.5319 0.96996 13.952 4.2062 22.498 20.995 18.795 37.273-3.7024 16.278-18.343 26.289-32.295 22.083-13.952-4.2062-22.282-21.142-18.58-37.42 3.1239-13.735 13.881-22.902 25.548-22.906zm177.17 3.5605-1.7606 7.7422c-3.2234-2.7245-6.9045-4.8017-10.936-6.0172-3.8337-1.1558-7.7152-1.4526-11.488-0.99738-13.475 1.6259-25.571 12.848-29.204 28.822-0.0877 0.38521-0.18346 0.76554-0.28318 1.1436l6.225 7.7127c0.0661-2.257 0.34824-4.5371 0.86402-6.8048 3.7024-16.278 18.127-26.142 32.08-21.936 13.952 4.2062 22.498 20.995 18.795 37.273-3.1692 13.934-14.353 23.274-26.259 23.037l1.3379 1.6573h17.468c6.7977-5.1507 12.078-13.054 14.259-22.643 3.5384-15.557-1.9378-31.742-12.478-40.921l60.658 18.287c8.5075 2.5647 17.703 1.3065 25.283-4.0447l-3.6701-7.0461c-6.2437 4.2694-12.831 5.2533-19.807 3.1502zm-396.82 0.53226c-0.60287 0.0721-7.5373 9.2771-7.4621 9.9053 0.0752 0.62828 8.9862 7.9373 9.5891 7.8652 0.60286-0.0721 7.5378-9.2776 7.4626-9.9058-0.0752-0.62828-8.9867-7.9368-9.5896-7.8647zm138.74 4.4349c-0.35576 0.0426-4.4477 5.4749-4.4034 5.8456 0.0444 0.37076 5.3028 4.6836 5.6586 4.6411 0.35576-0.0426 4.4482-5.4749 4.4039-5.8456-0.0444-0.37076-5.3033-4.6836-5.6591-4.6411zm-170.05 5.3438c-1.5821-0.0193-3.1655 0.63222-4.7057 1.9606l-3.0313 3.2804 28.157 25.696c5.9549 5.4343 8.1516 13.495 8.06 21.304-0.0388 3.3084-0.58149 6.3308-1.6138 9.0811h8.2114c0.67971-2.6176 1.0384-5.3651 1.032-8.1974-0.0248-9.3083-3.6617-19.233-10.274-26.859l-19.836-22.876c-1.934-2.2304-3.966-3.3645-6.0002-3.3895zm80.2 17.547c-3.1526-0.0577-5.3213 2.0892-6.2751 6.2828l-8.5271 37.492h9.619l11.176-42.279-3.6556-1.1023c-0.82949-0.25005-1.6093-0.38044-2.3368-0.39378zm376.16 5.424c-0.46405-0.0206-0.94207 0.13322-1.3627 0.48371l-8.3514 5.5433c-1.1217 0.93462-1.4832 2.5227-0.90332 3.9703l4.8752 9.7426c0.625 1.2491 2.1564 1.7107 3.2329 0.97462l8.3964-5.7418c1.1217-0.93464 1.4832-2.5228 0.90331-3.9703l-4.9201-9.5441c-0.3624-0.90474-1.0967-1.424-1.8702-1.4583zm-513.66 3.9579v5.1098c1.9463-0.97547 3.8374-1.7431 5.0193-1.8681-0.20181-2.2459-2.4363-3.114-5.0193-3.2417zm534.13 1.5658c-0.31726-5e-3 -0.57819 0.0576-0.75345 0.20359l-5.2643 7.5835c-1.1216 0.93461-1.4832 2.5227-0.90329 3.9703l4.8752 9.7426c0.625 1.2491 2.1564 1.7107 3.2329 0.97462l8.3964-5.7418c1.1216-0.93464 1.4832-2.5228 0.90331-3.9703l-4.9201-9.5441c-0.48919-1.2214-3.8534-3.1934-5.5666-3.2184zm-350.44 5.6575c-0.3837 9e-3 -0.76482 0.12189-1.1012 0.35192l-8.3964 5.7418c-1.2466 0.68477-1.653 2.471-0.85783 3.7713l4.8746 9.7425c0.62498 1.2491 3.5733 2.0048 4.6498 1.2686l6.9799-6.0353c1.0765-0.73613 1.4828-2.5228 0.85783-3.7719l-4.8752-9.7425c-0.42969-0.85876-1.2875-1.3455-2.1316-1.3265zm-75.538 0.82942c-0.60286 0.0721-7.5378 9.2776-7.4626 9.9058 0.0752 0.62828 8.9867 7.9368 9.5896 7.8646 0.60287-0.0722 7.5373-9.2776 7.4621-9.9058s-8.9862-7.9368-9.5891-7.8646zm-88.921 9.757-19.227 16.583h10.508l9.6945-8.3613c2.4372-2.102 2.2107-5.6387-0.97565-8.2217z" fill="#c7b5df" style="paint-order:stroke markers fill"/>
 </g>
</svg>
