<svg enable-background="new 0 0 267.313 267.313" version="1.1" viewBox="0 0 267.31 267.31" xmlns="http://www.w3.org/2000/svg">
 <path d="m217.51 219.19c0.37194-0.7269 0.95389-1.3088 1.6815-1.6815l38.352-19.682c4.8847-2.5074 7.7704-7.4706 7.5321-12.956-0.239-5.4872-3.5468-10.18-8.6281-12.254l-48.769-19.892c1.5457-22.353-7.6276-47.139-26.787-66.298-19.159-19.159-43.945-28.333-66.298-26.787l-19.892-48.768c-2.0739-5.0848-6.7698-8.3905-12.256-8.6281-5.485-0.2383-10.449 2.6481-12.954 7.5321l-19.682 38.353c-0.37194 0.72691-0.95389 1.3089-1.6815 1.6815l-38.352 19.683c-4.8847 2.506-7.7704 7.4692-7.5321 12.954 0.15556 3.5681 1.6073 6.8017 4.0029 9.1973 1.2876 1.2876 2.8475 2.3327 4.6245 3.0589l48.768 19.892c-1.5457 22.353 7.6283 47.139 26.787 66.298 19.159 19.159 43.945 28.332 66.298 26.787l19.892 48.769c0.72549 1.7777 1.7706 3.3361 3.059 4.6245 2.395 2.395 5.6293 3.8474 9.1959 4.0029 5.485 0.23829 10.449-2.6481 12.956-7.5321z"/>
</svg>
